<svg xmlns="http://www.w3.org/2000/svg" xmlns:xlink="http://www.w3.org/1999/xlink" contentStyleType="text/css" height="684px" preserveAspectRatio="none" style="width:711px;height:684px;background:#FFFFFF;" version="1.1" viewBox="0 0 711 684" width="711px" zoomAndPan="magnify"><defs/><g><!--cluster d77d5e503ad1439f585ac494268b351b--><g id="cluster_d77d5e503ad1439f585ac494268b351b"><polygon fill="none" points="16,16,26,6,496,6,496,566.67,486,576.67,16,576.67,16,16" style="stroke:#181818;stroke-width:1.0;"/><line style="stroke:#181818;stroke-width:1.0;" x1="486" x2="496" y1="16" y2="6"/><line style="stroke:#181818;stroke-width:1.0;" x1="16" x2="486" y1="16" y2="16"/><line style="stroke:#181818;stroke-width:1.0;" x1="486" x2="486" y1="16" y2="576.67"/><text fill="#000000" font-family="sans-serif" font-size="14" font-weight="bold" lengthAdjust="spacing" textLength="21" x="241.5" y="31.9951">Db</text></g><!--cluster 2567a5ec9705eb7ac2c984033e06189d--><g id="cluster_2567a5ec9705eb7ac2c984033e06189d"><polygon fill="none" points="520,56.74,530,46.74,643,46.74,643,566.67,633,576.67,520,576.67,520,56.74" style="stroke:#181818;stroke-width:1.0;"/><line style="stroke:#181818;stroke-width:1.0;" x1="633" x2="643" y1="56.74" y2="46.74"/><line style="stroke:#181818;stroke-width:1.0;" x1="520" x2="633" y1="56.74" y2="56.74"/><line style="stroke:#181818;stroke-width:1.0;" x1="633" x2="633" y1="56.74" y2="576.67"/><text fill="#000000" font-family="sans-serif" font-size="14" font-weight="bold" lengthAdjust="spacing" textLength="35" x="560" y="72.7351">Web</text></g><!--entity 355aeb7ac3f8fa43e8d94fbf0e4b8d6c--><g id="elem_355aeb7ac3f8fa43e8d94fbf0e4b8d6c"><rect fill="#F1F1F1" height="160.375" rx="2.5" ry="2.5" style="stroke:#181818;stroke-width:0.5;" width="449" x="31.5" y="46"/><rect fill="#F1F1F1" height="10" style="stroke:#181818;stroke-width:0.5;" width="15" x="460.5" y="51"/><rect fill="#F1F1F1" height="2" style="stroke:#181818;stroke-width:0.5;" width="4" x="458.5" y="53"/><rect fill="#F1F1F1" height="2" style="stroke:#181818;stroke-width:0.5;" width="4" x="458.5" y="57"/><text fill="#000000" font-family="sans-serif" font-size="14" font-weight="bold" lengthAdjust="spacing" textLength="20" x="46.5" y="78.9951">db</text><text fill="#000000" font-family="sans-serif" font-size="14" lengthAdjust="spacing" textLength="4" x="46.5" y="95.292">&#160;</text><text fill="#000000" font-family="sans-serif" font-size="14" lengthAdjust="spacing" textLength="136" x="46.5" y="111.5889">image: postgres:16</text><text fill="#000000" font-family="sans-serif" font-size="14" lengthAdjust="spacing" textLength="308" x="46.5" y="127.8857">environment: POSTGRES_DB=${DB_NAME}</text><text fill="#000000" font-family="sans-serif" font-size="14" lengthAdjust="spacing" textLength="323" x="46.5" y="144.1826">environment: POSTGRES_USER=${DB_USER}</text><text fill="#000000" font-family="sans-serif" font-size="14" lengthAdjust="spacing" textLength="409" x="46.5" y="160.4795">environment: POSTGRES_PASSWORD=${DB_PASSWORD}</text><text fill="#000000" font-family="sans-serif" font-size="14" lengthAdjust="spacing" textLength="99" x="46.5" y="176.7764">restart: always</text><text fill="#000000" font-family="sans-serif" font-size="14" lengthAdjust="spacing" textLength="4" x="46.5" y="193.0732">&#160;</text></g><!--entity d5baecb173d637b4e1f821d6b00b6f89--><g id="elem_d5baecb173d637b4e1f821d6b00b6f89"><rect fill="#F1F1F1" height="39.2969" rx="2.5" ry="2.5" style="stroke:#181818;stroke-width:0.5;" width="189" x="161.5" y="521.38"/><polygon fill="#F1F1F1" points="333.5,526.38,333.5,540.38,345.5,540.38,345.5,532.38,339.5,526.38,333.5,526.38" style="stroke:#181818;stroke-width:0.5;"/><line style="stroke:#181818;stroke-width:0.5;" x1="339.5" x2="339.5" y1="526.38" y2="532.38"/><line style="stroke:#181818;stroke-width:0.5;" x1="345.5" x2="339.5" y1="532.38" y2="532.38"/><text fill="#000000" font-family="sans-serif" font-size="14" lengthAdjust="spacing" textLength="159" x="171.5" y="547.3751">/var/lib/postgresql/data</text></g><!--entity 04a565d19766ebe0348853b17c395bd1--><g id="elem_04a565d19766ebe0348853b17c395bd1"><rect fill="#F1F1F1" height="78.8906" rx="2.5" ry="2.5" style="stroke:#181818;stroke-width:0.5;" width="74" x="538" y="86.74"/><rect fill="#F1F1F1" height="10" style="stroke:#181818;stroke-width:0.5;" width="15" x="592" y="91.74"/><rect fill="#F1F1F1" height="2" style="stroke:#181818;stroke-width:0.5;" width="4" x="590" y="93.74"/><rect fill="#F1F1F1" height="2" style="stroke:#181818;stroke-width:0.5;" width="4" x="590" y="97.74"/><text fill="#000000" font-family="sans-serif" font-size="14" font-weight="bold" lengthAdjust="spacing" textLength="34" x="553" y="119.7351">web</text><text fill="#000000" font-family="sans-serif" font-size="14" lengthAdjust="spacing" textLength="4" x="553" y="136.032">&#160;</text><text fill="#000000" font-family="sans-serif" font-size="14" lengthAdjust="spacing" textLength="4" x="553" y="152.3289">&#160;</text></g><!--entity fd433df176955d196b161b0a41a19970--><g id="elem_fd433df176955d196b161b0a41a19970"><ellipse cx="600" cy="296.38" fill="#F1F1F1" rx="8" ry="8" style="stroke:#181818;stroke-width:0.5;"/><text fill="#000000" font-family="sans-serif" font-size="14" lengthAdjust="spacing" textLength="36" x="582" y="326.3751">8000</text></g><!--entity 301c533911c67c4082a76dd30c015c8d--><g id="elem_301c533911c67c4082a76dd30c015c8d"><rect fill="#F1F1F1" height="39.2969" rx="2.5" ry="2.5" style="stroke:#181818;stroke-width:0.5;" width="75" x="536.5" y="521.38"/><polygon fill="#F1F1F1" points="594.5,526.38,594.5,540.38,606.5,540.38,606.5,532.38,600.5,526.38,594.5,526.38" style="stroke:#181818;stroke-width:0.5;"/><line style="stroke:#181818;stroke-width:0.5;" x1="600.5" x2="600.5" y1="526.38" y2="532.38"/><line style="stroke:#181818;stroke-width:0.5;" x1="606.5" x2="600.5" y1="532.38" y2="532.38"/><text fill="#000000" font-family="sans-serif" font-size="14" lengthAdjust="spacing" textLength="45" x="546.5" y="547.3751">/code/</text></g><!--entity 8f43cdaa51c57c85a87f1e538692f2cc--><g id="elem_8f43cdaa51c57c85a87f1e538692f2cc"><rect fill="#F1F1F1" height="39.2969" rx="2.5" ry="2.5" style="stroke:#181818;stroke-width:0.5;" width="92" x="210" y="639.67"/><polygon fill="#F1F1F1" points="285,644.67,285,658.67,297,658.67,297,650.67,291,644.67,285,644.67" style="stroke:#181818;stroke-width:0.5;"/><line style="stroke:#181818;stroke-width:0.5;" x1="291" x2="291" y1="644.67" y2="650.67"/><line style="stroke:#181818;stroke-width:0.5;" x1="297" x2="291" y1="650.67" y2="650.67"/><text fill="#000000" font-family="sans-serif" font-size="14" lengthAdjust="spacing" textLength="62" x="220" y="665.6651">./data/db</text></g><!--entity 58b9e70b65a77700ba66e9c64d6b9f89--><g id="elem_58b9e70b65a77700ba66e9c64d6b9f89"><rect fill="#F1F1F1" height="39.2969" rx="2.5" ry="2.5" style="stroke:#181818;stroke-width:0.5;" width="34" x="557" y="639.67"/><polygon fill="#F1F1F1" points="574,644.67,574,658.67,586,658.67,586,650.67,580,644.67,574,644.67" style="stroke:#181818;stroke-width:0.5;"/><line style="stroke:#181818;stroke-width:0.5;" x1="580" x2="580" y1="644.67" y2="650.67"/><line style="stroke:#181818;stroke-width:0.5;" x1="586" x2="580" y1="650.67" y2="650.67"/><text fill="#000000" font-family="sans-serif" font-size="14" lengthAdjust="spacing" textLength="4" x="567" y="665.6651">.</text></g><!--entity 1624c420083928ef3e240dd88f2e52f0--><g id="elem_1624c420083928ef3e240dd88f2e52f0"><ellipse cx="686" cy="431.38" fill="#F1F1F1" rx="8" ry="8" style="stroke:#181818;stroke-width:0.5;"/><text fill="#000000" font-family="sans-serif" font-size="14" lengthAdjust="spacing" textLength="36" x="668" y="461.3751">8000</text></g><!--link d5baecb173d637b4e1f821d6b00b6f89 to 8f43cdaa51c57c85a87f1e538692f2cc--><g id="link_d5baecb173d637b4e1f821d6b00b6f89_8f43cdaa51c57c85a87f1e538692f2cc"><path codeLine="27" d="M256,560.97 C256,582.59 256,617.76 256,639.39 " fill="none" id="d5baecb173d637b4e1f821d6b00b6f89-8f43cdaa51c57c85a87f1e538692f2cc" style="stroke:#181818;stroke-width:1.0;"/><text fill="#000000" font-family="sans-serif" font-size="13" lengthAdjust="spacing" textLength="14" x="257" y="605.7369">rw</text></g><!--link 355aeb7ac3f8fa43e8d94fbf0e4b8d6c to d5baecb173d637b4e1f821d6b00b6f89--><g id="link_355aeb7ac3f8fa43e8d94fbf0e4b8d6c_d5baecb173d637b4e1f821d6b00b6f89"><path codeLine="28" d="M256,206.79 C256,305.2 256,460.39 256,515.15 " fill="none" id="355aeb7ac3f8fa43e8d94fbf0e4b8d6c-to-d5baecb173d637b4e1f821d6b00b6f89" style="stroke:#181818;stroke-width:1.0;stroke-dasharray:7.0,7.0;"/><polygon fill="#181818" points="256,521.15,260,512.15,256,516.15,252,512.15,256,521.15" style="stroke:#181818;stroke-width:1.0;"/><text fill="#000000" font-family="sans-serif" font-size="13" lengthAdjust="spacing" textLength="23" x="257" y="368.4469">use</text></g><!--link 04a565d19766ebe0348853b17c395bd1 to fd433df176955d196b161b0a41a19970--><g id="link_04a565d19766ebe0348853b17c395bd1_fd433df176955d196b161b0a41a19970"><path codeLine="29" d="M580.74,165.77 C586.73,206.12 595.7,266.46 598.85,287.67 " fill="none" id="04a565d19766ebe0348853b17c395bd1-fd433df176955d196b161b0a41a19970" style="stroke:#181818;stroke-width:1.0;"/></g><!--link fd433df176955d196b161b0a41a19970 to 1624c420083928ef3e240dd88f2e52f0--><g id="link_fd433df176955d196b161b0a41a19970_1624c420083928ef3e240dd88f2e52f0"><path codeLine="30" d="M605.12,305.3 C620.45,329.01 665.86,399.23 681.01,422.66 " fill="none" id="fd433df176955d196b161b0a41a19970-1624c420083928ef3e240dd88f2e52f0" style="stroke:#181818;stroke-width:1.0;"/></g><!--link 301c533911c67c4082a76dd30c015c8d to 58b9e70b65a77700ba66e9c64d6b9f89--><g id="link_301c533911c67c4082a76dd30c015c8d_58b9e70b65a77700ba66e9c64d6b9f89"><path codeLine="31" d="M574,560.97 C574,582.59 574,617.76 574,639.39 " fill="none" id="301c533911c67c4082a76dd30c015c8d-58b9e70b65a77700ba66e9c64d6b9f89" style="stroke:#181818;stroke-width:1.0;"/><text fill="#000000" font-family="sans-serif" font-size="13" lengthAdjust="spacing" textLength="14" x="575" y="605.7369">rw</text></g><!--link 04a565d19766ebe0348853b17c395bd1 to 301c533911c67c4082a76dd30c015c8d--><g id="link_04a565d19766ebe0348853b17c395bd1_301c533911c67c4082a76dd30c015c8d"><path codeLine="32" d="M568.31,166.02 C563.82,194.08 558.32,232.95 556,267.38 C549.57,362.75 563.5228,470.966 570.1428,515.246 " fill="none" id="04a565d19766ebe0348853b17c395bd1-to-301c533911c67c4082a76dd30c015c8d" style="stroke:#181818;stroke-width:1.0;stroke-dasharray:7.0,7.0;"/><polygon fill="#181818" points="571.03,521.18,573.6553,511.6875,570.2907,516.235,565.7432,512.8704,571.03,521.18" style="stroke:#181818;stroke-width:1.0;"/><text fill="#000000" font-family="sans-serif" font-size="13" lengthAdjust="spacing" textLength="23" x="556" y="368.4469">use</text></g><!--SRC=[XP9DQnin48Rl-XLYwQ4rnAll3qCB2JOzjGbsImwbX956CWlsRcgxSKlmVw-yjcbo27kJu9rtvdrcOBNgzklcJzCkITjXejKqL1Is5Ar5dJIJW5n9dxNJ49LNmhWWDG_qcT3OhH-xDhKxAhM652n4cLq69PD3htB8BAdWq4JwWun664OZGferBDE4FdRRtNAJjXDkI6gVcatNhelJXDxTBhvzdiyM3zERZ- -UfpSFNw-_p0vlQBulPlEJwlXwItLtlLZStywd9-NbTo2b_GusHGchFVpT4lAJb6-J8UveLJ_1fbureRvC-cjL8-pWH4S7I35mAz586rJYsGcE9Z0MJ7QU7CuqxzC9fz36WaxHMwPxK29wfvYKYHdkFBx6oHHeev5xQqmAYKdbd9QbNPHU1-GzpdtgUPQXtt-WbMECzPqoAYanSskyFbgOm0qF31G7xalxbn5ZcR7kgoJZKKlfEO_6HiMS06iG9OkCw-Ym1FfVD-v1r7YAvhAI4G5qSR2nd8cpcISjdV4YYnXV5lO5sWMVR06bmLfRY459wQDHXPy_mdkLXnkXeXACEUc5IraceHYYSraaBJ8ZGxkWLtWrE2ITq6gphyZW8O_7E1v_6Zo0ez_lRQh8u2gFqmtkR4ZGkmoI6bfoxpAqdGkfmM1dKeDDpwJ-0G00]--></g></svg>